<svg width="35" height="35" viewBox="0 0 35 35" fill="none" xmlns="http://www.w3.org/2000/svg">
<path d="M28.8021 0H6.19792C2.7749 0 0 2.7749 0 6.19792V27.9271C0 31.3501 2.7749 34.125 6.19792 34.125H28.8021C32.2251 34.125 35 31.3501 35 27.9271V6.19792C35 2.7749 32.2251 0 28.8021 0Z" fill="#001E36"/>
<path d="M7.88135 23.9305V8.92727C7.88135 8.8179 7.92831 8.76292 8.02222 8.76292C8.27233 8.76292 8.50085 8.75927 8.84531 8.75125C9.18947 8.74347 9.5612 8.73565 9.96049 8.72777C10.3597 8.72 10.7824 8.71217 11.2285 8.70429C11.6746 8.69652 12.1167 8.69263 12.555 8.69263C13.7444 8.69263 14.7462 8.84128 15.5603 9.13859C16.2948 9.38701 16.9646 9.79608 17.5209 10.336C17.9925 10.804 18.357 11.3687 18.5892 11.9912C18.8088 12.5971 18.9201 13.2369 18.9179 13.8814C18.9179 15.1339 18.6283 16.167 18.0491 16.9806C17.4662 17.7977 16.6467 18.4164 15.7012 18.7534C14.7151 19.1213 13.6193 19.2461 12.4141 19.2461C12.0697 19.2461 11.8271 19.2423 11.6863 19.2345C11.5454 19.2267 11.3341 19.2227 11.0523 19.2225V23.907C11.0565 23.9357 11.0539 23.965 11.0447 23.9925C11.0356 24.0201 11.0201 24.0451 10.9996 24.0656C10.9791 24.0861 10.9541 24.1016 10.9266 24.1108C10.899 24.1199 10.8698 24.1226 10.841 24.1184H8.0457C7.93604 24.1184 7.88135 24.056 7.88135 23.9305ZM11.0523 11.5806V16.474C11.2555 16.4898 11.4434 16.4976 11.6158 16.4975H12.3907C12.9608 16.4956 13.5271 16.4052 14.0695 16.2294C14.5346 16.0913 14.9502 15.8223 15.2668 15.4546C15.5721 15.0948 15.7247 14.5939 15.7247 13.952C15.7371 13.4978 15.6189 13.0496 15.3842 12.6606C15.1375 12.2845 14.7809 11.9935 14.3629 11.8272C13.8172 11.615 13.2342 11.5151 12.6489 11.5336C12.2733 11.5336 11.9407 11.5375 11.6511 11.5453C11.3613 11.5534 11.1617 11.5652 11.0523 11.5806ZM27.996 15.5841C27.5547 15.3574 27.0847 15.1915 26.5989 15.0911C26.0636 14.9683 25.5164 14.9053 24.9672 14.9032C24.6701 14.8952 24.3735 14.9307 24.0868 15.0088C23.9042 15.0495 23.742 15.1535 23.6289 15.3024C23.5523 15.4214 23.5116 15.56 23.5115 15.7015C23.5158 15.8388 23.5653 15.9709 23.6523 16.0772C23.7895 16.2376 23.957 16.3692 24.1453 16.4645C24.4801 16.6448 24.8251 16.8055 25.1785 16.9458C25.9665 17.2096 26.7194 17.5683 27.4207 18.0141C27.8985 18.3157 28.2939 18.7312 28.5713 19.2234C28.8045 19.6894 28.9213 20.205 28.9117 20.7261C28.9257 21.4141 28.7291 22.0899 28.3482 22.663C27.9404 23.2448 27.3739 23.6972 26.7163 23.9662C26.0039 24.2791 25.1234 24.4357 24.075 24.4358C23.4089 24.4425 22.7439 24.3796 22.0909 24.2479C21.5765 24.1536 21.0757 23.9959 20.6001 23.7784C20.5487 23.7519 20.506 23.7113 20.4769 23.6614C20.4478 23.6115 20.4335 23.5543 20.4357 23.4966V20.9609C20.4329 20.936 20.4368 20.9109 20.4472 20.8881C20.4575 20.8654 20.4739 20.8458 20.4945 20.8316C20.5146 20.8202 20.5378 20.8153 20.5608 20.8173C20.5839 20.8194 20.6058 20.8285 20.6235 20.8433C21.1853 21.1746 21.7952 21.4162 22.4314 21.5595C22.9922 21.7001 23.5674 21.775 24.1454 21.7826C24.6932 21.7826 25.0962 21.7121 25.3545 21.5712C25.4712 21.5178 25.5699 21.4317 25.6386 21.3234C25.7074 21.2151 25.7433 21.0892 25.742 20.9609C25.742 20.7577 25.6246 20.562 25.3898 20.3739C25.155 20.186 24.6776 19.959 23.9576 19.6928C23.2203 19.4363 22.5213 19.0809 21.8796 18.6364C21.4206 18.3172 21.0427 17.8951 20.7761 17.4037C20.5452 16.941 20.4285 16.4298 20.4357 15.9128C20.4344 15.2916 20.605 14.6821 20.9286 14.1519C21.2977 13.568 21.8278 13.1032 22.4549 12.8136C23.1435 12.4694 24.0044 12.2972 25.0376 12.297C25.6427 12.2922 26.2472 12.3353 26.8455 12.4261C27.2787 12.4811 27.7022 12.5957 28.1041 12.7666C28.136 12.7757 28.1653 12.7921 28.1898 12.8145C28.2142 12.8369 28.2332 12.8647 28.2451 12.8957C28.2609 12.9531 28.2687 13.0123 28.2684 13.0719V15.4431C28.2701 15.4707 28.2645 15.4983 28.2521 15.523C28.2398 15.5478 28.2212 15.5688 28.1981 15.5841C28.1667 15.5997 28.1321 15.6079 28.0971 15.6079C28.062 15.6079 28.0274 15.5997 27.996 15.5841Z" fill="#31A8FF"/>
</svg>
