<svg width="75" height="101" viewBox="0 0 75 101" fill="none" xmlns="http://www.w3.org/2000/svg">
<g filter="url(#filter0_d_486_14)">
<path d="M47.8985 13.9859C47.8985 6.29171 41.6783 0.0715332 33.9841 0.0715332C26.29 0.0715332 20.0698 6.30645 20.0698 13.9859C20.0698 19.2037 22.9441 23.7436 27.1891 26.1167L27.4839 16.8896C27.4839 13.1162 30.5498 10.0503 34.3379 10.0503H34.7211C37.6986 10.0503 40.1159 12.4677 40.1159 15.4451V26.4704C44.7147 24.2005 47.8985 19.469 47.8985 13.9859Z" fill="#A663CC"/>
<path d="M40.1157 15.4451C40.1157 12.4677 37.6984 10.0504 34.721 10.0504H34.3378C30.5497 10.0504 27.4838 13.1162 27.4838 16.8896L27.189 26.1167L26.5552 46.4575C26.4078 47.0766 26.3194 61.2267 26.3194 61.2267C25.1254 60.0033 23.7989 58.6178 22.6049 57.2765C19.8191 54.1664 14.6897 52.0586 11.2701 51.6754C9.47182 51.469 8.10103 51.7196 7.18716 52.3976C6.89237 52.6187 6.61231 52.8693 6.33226 53.1346C4.57823 54.8739 3.25165 57.6745 4.47505 59.7233C5.00568 60.6224 5.91955 61.212 6.89237 61.8458C8.17473 62.686 10.3415 63.5851 11.9628 65.6634C14.6897 69.142 20.9983 76.9393 24.8749 81.0959C25.6708 81.5971 27.3806 83.3069 28.1913 83.7343C30.6381 85.2967 32.6427 86.7707 33.3355 87.5667C33.8808 88.1857 37.0794 89.8218 37.0794 89.8218C39.6736 91.4579 44.3903 92.9909 49.8292 92.9909C55.2682 92.9909 60.206 93.3152 63.8467 90.1019H64.0531L64.1415 89.8513C67.8559 86.4464 70.1553 81.7445 70.1553 76.5266C70.1553 75.2442 70.1553 70.4833 70.1553 69.5989V51.6459C70.1553 50.4225 69.89 46.3396 66.4409 45.1015C64.7901 44.5119 63.2277 44.733 61.9011 45.3078L61.5916 45.3226H61.4884C60.8988 43.0821 59.3953 41.6229 57.1844 41.2397C54.5165 40.7827 52.6593 41.5787 51.5538 42.3746C50.4483 40.0015 48.2226 38.7634 45.2304 39.0139C42.9753 39.2056 41.3097 40.311 40.0863 41.7703V26.4409V15.4451H40.1157Z" fill="white"/>
</g>
<defs>
<filter id="filter0_d_486_14" x="0" y="0.0715332" width="74.1553" height="100.928" filterUnits="userSpaceOnUse" color-interpolation-filters="sRGB">
<feFlood flood-opacity="0" result="BackgroundImageFix"/>
<feColorMatrix in="SourceAlpha" type="matrix" values="0 0 0 0 0 0 0 0 0 0 0 0 0 0 0 0 0 0 127 0" result="hardAlpha"/>
<feOffset dy="4"/>
<feGaussianBlur stdDeviation="2"/>
<feComposite in2="hardAlpha" operator="out"/>
<feColorMatrix type="matrix" values="0 0 0 0 0 0 0 0 0 0 0 0 0 0 0 0 0 0 0.25 0"/>
<feBlend mode="normal" in2="BackgroundImageFix" result="effect1_dropShadow_486_14"/>
<feBlend mode="normal" in="SourceGraphic" in2="effect1_dropShadow_486_14" result="shape"/>
</filter>
</defs>
</svg>
