<svg width="35" height="35" viewBox="0 0 35 35" fill="none" xmlns="http://www.w3.org/2000/svg">
<g clip-path="url(#clip0_471_2)">
<path d="M17.5 35C27.165 35 35 27.165 35 17.5C35 7.83502 27.165 0 17.5 0C7.83502 0 0 7.83502 0 17.5C0 27.165 7.83502 35 17.5 35Z" fill="#13AA52"/>
<path d="M22.178 15.3617C21.0726 10.4833 18.4603 8.8792 18.179 8.26636C17.8714 7.83398 17.5597 7.06494 17.5597 7.06494C17.5545 7.05195 17.5463 7.02905 17.5368 7.00684C17.505 7.43921 17.4886 7.60601 17.0798 8.04214C16.4468 8.53706 13.199 11.2622 12.9348 16.8048C12.6884 21.9741 16.6689 25.0544 17.2073 25.4471L17.2684 25.4905V25.4868C17.2719 25.5127 17.4393 26.7172 17.5569 27.9935H17.9787C18.0777 27.0913 18.226 26.1953 18.423 25.3094L18.4572 25.2872C18.698 25.1145 18.9276 24.9267 19.1446 24.7249L19.1692 24.7027C20.3135 23.6455 22.3708 21.2003 22.3506 17.3018C22.3464 16.6514 22.2886 16.0026 22.178 15.3617ZM17.5121 22.5285C17.5121 22.5285 17.5121 15.2783 17.7514 15.2797C17.938 15.2797 18.1797 24.6316 18.1797 24.6316C17.8474 24.5916 17.5121 23.0925 17.5121 22.5285Z" fill="white"/>
</g>
<defs>
<clipPath id="clip0_471_2">
<rect width="35" height="35" fill="white"/>
</clipPath>
</defs>
</svg>
