<svg width="35" height="35" viewBox="0 0 35 35" fill="none" xmlns="http://www.w3.org/2000/svg">
<path d="M34.34 15.9406L19.0586 0.660045C18.1791 -0.220015 16.7518 -0.220015 15.8712 0.660045L12.6979 3.83329L16.7233 7.85871C17.6588 7.54262 18.7315 7.75467 19.4771 8.50033C20.2263 9.25078 20.4369 10.3326 20.1131 11.2711L23.9925 15.1506C24.9311 14.8273 26.0141 15.0365 26.7637 15.7873C27.8114 16.8346 27.8114 18.532 26.7637 19.5799C25.7158 20.628 24.0184 20.628 22.9699 19.5799C22.1818 18.791 21.9872 17.6337 22.3861 16.6629L18.7682 13.045L18.7678 22.5657C19.0301 22.6954 19.2696 22.8667 19.4771 23.0729C20.5248 24.1202 20.5248 25.8177 19.4771 26.8665C18.4292 27.914 16.731 27.914 15.6845 26.8665C14.6369 25.8177 14.6369 24.1203 15.6845 23.0731C15.9356 22.8219 16.234 22.6229 16.5624 22.4878V12.8784C16.2335 12.7441 15.935 12.545 15.6845 12.2931C14.8908 11.5004 14.6999 10.3357 15.1066 9.36098L11.1385 5.39244L0.660353 15.8699C-0.220118 16.7508 -0.220118 18.1783 0.660353 19.0585L15.942 34.3393C16.8218 35.2195 18.2488 35.2195 19.1297 34.3393L34.3399 19.1294C35.2201 18.2489 35.2202 16.8206 34.34 15.9406Z" fill="#DE4C36"/>
</svg>
