<svg width="35" height="35" viewBox="0 0 35 35" fill="none" xmlns="http://www.w3.org/2000/svg">
<path fill-rule="evenodd" clip-rule="evenodd" d="M34.1882 25.7374L34.0316 26.1447C31.3627 31.3429 26.6316 34.533 19.884 34.6726C16.7309 34.7381 13.723 33.9292 11.7605 33.0491C7.52224 31.1464 3.95899 27.6145 2.01359 23.8433C-0.777769 18.4372 -1.28192 10.9147 4.52296 5.29785C4.61126 5.29785 3.81942 6.51693 3.90772 6.51693L3.74821 7.03818C-0.435971 20.1348 12.4527 31.3571 24.9796 30.0754C27.9931 29.7621 31.8327 28.1129 34.1882 25.7374Z" fill="#21609B"/>
<path fill-rule="evenodd" clip-rule="evenodd" d="M26.6058 20.3227C29.7589 20.3455 33.0487 18.8701 34.9998 16.8022C33.2936 21.1316 28.3546 23.9145 21.7323 23.0286C16.1866 22.2852 10.9058 16.7054 10.3618 11.1141C9.96302 7.04385 11.3815 4.61708 13.72 1.66907C12.9082 3.21001 12.6034 4.39776 12.5294 5.15541C11.6378 13.9624 19.559 20.2772 26.6058 20.3227Z" fill="#21609B"/>
<path fill-rule="evenodd" clip-rule="evenodd" d="M34.6838 9.39092C34.1939 10.516 31.3741 12.638 30.1265 12.9029C25.1932 13.9539 22.0344 11.6155 20.3796 8.95227C20.1346 8.55351 19.6789 7.4683 19.5963 7.19201C18.9554 5.0102 19.2488 1.70899 21.1628 0C20.5875 1.62354 20.502 3.51198 20.8068 4.73961C20.9919 5.48017 21.5502 6.77616 22.1113 7.59078C23.131 9.07475 23.7776 9.43364 25.0907 10.2226C25.6803 10.5758 26.3155 10.8607 26.5889 10.9404C27.8308 11.305 30.4541 12.2677 34.6838 9.39092Z" fill="#21609B"/>
</svg>
