<svg width="35" height="22" viewBox="0 0 35 22" fill="none" xmlns="http://www.w3.org/2000/svg">
<path d="M8.2585 5.5071H14.8598V6.03183H8.86361V9.98074H14.5023V10.5054H8.86361V14.841H14.9286V15.3656H8.2585V5.5071ZM15.4513 5.5071H16.1526L19.2607 9.84266L22.4376 5.50703L26.7587 0L19.6595 10.2983L23.3178 15.3656H22.5889L19.2607 10.754L15.9188 15.3656H15.2037L18.8894 10.2983L15.4513 5.5071ZM23.5791 6.03183V5.50703H31.1019V6.03176H27.6361V15.3655H27.031V6.03183H23.5791ZM0 5.50703H0.756396L11.1867 21.115L6.87641 15.3655L0.632598 6.2527L0.605117 15.3657H0L0 5.50703ZM31.0409 14.6825C30.9172 14.6825 30.8245 14.5868 30.8245 14.4629C30.8245 14.3392 30.9172 14.2434 31.0409 14.2434C31.166 14.2434 31.2573 14.3391 31.2573 14.4629C31.2573 14.5867 31.166 14.6825 31.0409 14.6825ZM31.6355 14.1049H31.9593C31.9637 14.2802 32.0917 14.3981 32.2801 14.3981C32.4906 14.3981 32.6098 14.2714 32.6098 14.0341V12.5309H32.9395V14.0355C32.9395 14.4629 32.6923 14.7091 32.2831 14.7091C31.8989 14.7091 31.6355 14.4703 31.6355 14.1048V14.1049ZM33.3707 14.0857H33.6975C33.7254 14.2876 33.9227 14.4158 34.2068 14.4158C34.4716 14.4158 34.6659 14.2787 34.6659 14.0901C34.6659 13.928 34.5423 13.8307 34.2612 13.7644L33.9874 13.6981C33.6032 13.6082 33.4281 13.4225 33.4281 13.1101C33.4281 12.7314 33.7372 12.4793 34.2008 12.4793C34.632 12.4793 34.947 12.7313 34.9662 13.0895H34.6453C34.6144 12.8935 34.4436 12.7711 34.1964 12.7711C33.9359 12.7711 33.7623 12.8964 33.7623 13.0879C33.7623 13.2397 33.8741 13.3267 34.1508 13.3915L34.3848 13.449C34.8204 13.5507 35 13.7276 35 14.0474C35 14.4541 34.6851 14.7091 34.1817 14.7091C33.7107 14.7091 33.3942 14.4659 33.3707 14.0857V14.0857Z" fill="black"/>
</svg>
