<svg width="107" height="97" viewBox="0 0 107 97" fill="none" xmlns="http://www.w3.org/2000/svg">
<path d="M83.8985 17.9859C83.8985 10.2917 77.6783 4.07153 69.9841 4.07153C62.29 4.07153 56.0698 10.3064 56.0698 17.9859C56.0698 23.2037 58.9441 27.7436 63.1891 30.1167L63.4839 20.8896C63.4839 17.1162 66.5498 14.0503 70.3379 14.0503H70.7211C73.6986 14.0503 76.1159 16.4677 76.1159 19.4451V30.4704C80.7147 28.2005 83.8985 23.469 83.8985 17.9859Z" fill="#A663CC"/>
<path d="M76.1157 19.4451C76.1157 16.4677 73.6984 14.0504 70.721 14.0504H70.3378C66.5497 14.0504 63.4838 17.1162 63.4838 20.8896L63.189 30.1167L62.5552 50.4575C62.4078 51.0766 62.3194 65.2267 62.3194 65.2267C61.1254 64.0033 59.7989 62.6178 58.6049 61.2765C55.8191 58.1664 50.6897 56.0586 47.2701 55.6754C45.4718 55.469 44.101 55.7196 43.1872 56.3976C42.8924 56.6187 42.6123 56.8693 42.3323 57.1346C40.5782 58.8739 39.2517 61.6745 40.4751 63.7233C41.0057 64.6224 41.9195 65.212 42.8924 65.8458C44.1747 66.686 46.3415 67.5851 47.9628 69.6634C50.6897 73.142 56.9983 80.9393 60.8749 85.0959C61.6708 85.5971 63.3806 87.3069 64.1913 87.7343C66.6381 89.2967 68.6427 90.7707 69.3355 91.5667C69.8808 92.1857 73.0794 93.8218 73.0794 93.8218C75.6736 95.4579 80.3903 96.9909 85.8292 96.9909C91.2682 96.9909 96.206 97.3152 99.8467 94.1019H100.053L100.142 93.8513C103.856 90.4464 106.155 85.7445 106.155 80.5266C106.155 79.2442 106.155 74.4833 106.155 73.5989V55.6459C106.155 54.4225 105.89 50.3396 102.441 49.1015C100.79 48.5119 99.2277 48.733 97.9011 49.3078L97.5916 49.3226H97.4884C96.8988 47.0821 95.3953 45.6229 93.1844 45.2397C90.5165 44.7827 88.6593 45.5787 87.5538 46.3746C86.4483 44.0015 84.2226 42.7634 81.2304 43.0139C78.9753 43.2056 77.3097 44.311 76.0863 45.7703V30.4409V19.4451H76.1157Z" fill="white"/>
<path d="M5.77796 24.1844C4.61352 23.1968 3.61123 22.3419 2.87424 21.7228C2.50575 21.4133 2.22568 21.1627 2.01933 21.0006L1.79823 20.809L1.73928 20.7647L1.72453 20.75C0.633792 19.8214 -9.85342e-06 18.4653 -9.85342e-06 17.0503C-9.85342e-06 15.6206 0.619056 14.2645 1.7098 13.3359L17.0391 0.232281C17.4518 -0.121473 18.0562 -0.0625131 18.4099 0.3502L23.4657 6.27558C23.8194 6.68829 23.7605 7.29262 23.3477 7.64637L18.0414 12.1715H49.555C49.8203 12.1715 50.0709 12.2747 50.2478 12.4515C50.4247 12.6284 50.5278 12.879 50.5278 13.1443V20.9416C50.5278 21.2069 50.4247 21.4428 50.2478 21.6344C50.0709 21.8113 49.8203 21.9144 49.555 21.9144H18.1151C18.9406 22.6219 19.7365 23.3147 20.444 23.919C21.1957 24.5676 21.859 25.1277 22.3749 25.5846C22.6402 25.8057 22.8613 26.0121 23.0382 26.1742C23.2298 26.3511 23.3772 26.4838 23.5541 26.6459C23.7457 26.8228 23.8489 27.0734 23.8489 27.3239C23.8489 27.5892 23.7605 27.8251 23.5688 28.0167L18.1593 33.6178C17.7909 33.9863 17.1865 34.0158 16.8033 33.662L16.5527 33.4262C15.9779 32.925 14.725 31.8343 13.2215 30.5372C10.9811 28.6063 8.0921 26.1447 5.77796 24.1844Z" fill="#B8D0EB"/>
</svg>
